# xmcd
#
# Track frame offsets:
#	150
#	7275
#	13950
#	17175
#	19650
#	21450
#	23850
#	25275
#	26175
#	31350
#	35325
#	42675
#	45975
#	49275
#	52575
#	58425
#	62250
#	63075
#	66750
#	70950
#	74025
#	77925
#	79125
#	80625
#	82350
#	83775
#	85425
#	86925
#	88200
#	90075
#	92100
#	94050
#	96450
#	98250
#	100350
#	102525
#	115950
#
# Disc length: 1754 seconds
#
# Revision: 1
# Processed by: cddbd v1.5.2PL0 Copyright (c) Steve Scherf et al.
# Submitted via: audiograbber 1.83.01
#
DISCID=0006d825
DTITLE=PONS / Power-Sprachtraining Rumänisch
DYEAR=2010
DGENRE=Sprachkurs
TTITLE0=PONS Rumänisch - Track 01
TTITLE1=PONS Rumänisch - Track 02
TTITLE2=PONS Rumänisch - Track 03
TTITLE3=PONS Rumänisch - Track 04
TTITLE4=PONS Rumänisch - Track 05
TTITLE5=PONS Rumänisch - Track 06
TTITLE6=PONS Rumänisch - Track 07
TTITLE7=PONS Rumänisch - Track 08
TTITLE8=PONS Rumänisch - Track 09
TTITLE9=PONS Rumänisch - Track 10
TTITLE10=PONS Rumänisch - Track 11
TTITLE11=PONS Rumänisch - Track 12
TTITLE12=PONS Rumänisch - Track 13
TTITLE13=PONS Rumänisch - Track 14
TTITLE14=PONS Rumänisch - Track 15
TTITLE15=PONS Rumänisch - Track 16
TTITLE16=PONS Rumänisch - Track 17
TTITLE17=PONS Rumänisch - Track 18
TTITLE18=PONS Rumänisch - Track 19
TTITLE19=PONS Rumänisch - Track 20
TTITLE20=PONS Rumänisch - Track 21
TTITLE21=PONS Rumänisch - Track 22
TTITLE22=PONS Rumänisch - Track 23
TTITLE23=PONS Rumänisch - Track 24
TTITLE24=PONS Rumänisch - Track 25
TTITLE25=PONS Rumänisch - Track 26
TTITLE26=PONS Rumänisch - Track 27
TTITLE27=PONS Rumänisch - Track 28
TTITLE28=PONS Rumänisch - Track 29
TTITLE29=PONS Rumänisch - Track 30
TTITLE30=PONS Rumänisch - Track 31
TTITLE31=PONS Rumänisch - Track 32
TTITLE32=PONS Rumänisch - Track 33
TTITLE33=PONS Rumänisch - Track 34
TTITLE34=PONS Rumänisch - Track 35
TTITLE35=PONS Rumänisch - Track 36
TTITLE36=Daten-CD
EXTD=
EXTT0=
EXTT1=
EXTT2=
EXTT3=
EXTT4=
EXTT5=
EXTT6=
EXTT7=
EXTT8=
EXTT9=
EXTT10=
EXTT11=
EXTT12=
EXTT13=
EXTT14=
EXTT15=
EXTT16=
EXTT17=
EXTT18=
EXTT19=
EXTT20=
EXTT21=
EXTT22=
EXTT23=
EXTT24=
EXTT25=
EXTT26=
EXTT27=
EXTT28=
EXTT29=
EXTT30=
EXTT31=
EXTT32=
EXTT33=
EXTT34=
EXTT35=
EXTT36=
PLAYORDER=
